<mxfile host="app.diagrams.net" agent="Mozilla/5.0 (Windows NT 10.0; Win64; x64) AppleWebKit/537.36 (KHTML, like Gecko) Chrome/135.0.0.0 Safari/537.36" version="26.2.12">
  <diagram name="Page-1" id="Zg2J0i8kcsBhqcDElQuv">
    <mxGraphModel dx="1044" dy="1662" grid="1" gridSize="10" guides="1" tooltips="1" connect="1" arrows="1" fold="1" page="1" pageScale="1" pageWidth="850" pageHeight="1100" math="1" shadow="0">
      <root>
        <mxCell id="0" />
        <mxCell id="1" parent="0" />
        <mxCell id="kov3exJGOiLsOatTBzYe-371" value="" style="rounded=1;whiteSpace=wrap;html=1;fillColor=none;" parent="1" vertex="1">
          <mxGeometry x="530" y="340" width="190" height="240" as="geometry" />
        </mxCell>
        <mxCell id="kov3exJGOiLsOatTBzYe-4" value="&lt;font style=&quot;font-size: 14px;&quot;&gt;$$1280 \times 720$$&lt;/font&gt;" style="text;html=1;align=center;verticalAlign=middle;resizable=0;points=[];autosize=1;strokeColor=none;fillColor=none;rotation=-90;" parent="1" vertex="1">
          <mxGeometry x="-25" y="230" width="150" height="30" as="geometry" />
        </mxCell>
        <mxCell id="kov3exJGOiLsOatTBzYe-5" value="$$15$$" style="text;html=1;align=center;verticalAlign=middle;resizable=0;points=[];autosize=1;strokeColor=none;fillColor=none;rotation=0;" parent="1" vertex="1">
          <mxGeometry x="31.5" y="50" width="60" height="30" as="geometry" />
        </mxCell>
        <mxCell id="kov3exJGOiLsOatTBzYe-10" value="" style="shape=flexArrow;endArrow=classic;html=1;rounded=0;fillColor=#000066;strokeColor=#000066;endWidth=7;endSize=6.38;" parent="1" edge="1">
          <mxGeometry width="50" height="50" relative="1" as="geometry">
            <mxPoint x="65" y="179.5" as="sourcePoint" />
            <mxPoint x="95" y="180" as="targetPoint" />
          </mxGeometry>
        </mxCell>
        <mxCell id="kov3exJGOiLsOatTBzYe-54" value="" style="shape=flexArrow;endArrow=classic;html=1;rounded=0;fillColor=#000066;strokeColor=#000066;endWidth=7;endSize=6.38;entryX=0;entryY=0.5;entryDx=0;entryDy=0;" parent="1" edge="1">
          <mxGeometry width="50" height="50" relative="1" as="geometry">
            <mxPoint x="145" y="379.5" as="sourcePoint" />
            <mxPoint x="175" y="380" as="targetPoint" />
          </mxGeometry>
        </mxCell>
        <mxCell id="kov3exJGOiLsOatTBzYe-63" value="" style="shape=flexArrow;endArrow=classic;html=1;rounded=0;fillColor=#660000;strokeColor=#660000;endWidth=7;endSize=6.38;" parent="1" edge="1">
          <mxGeometry width="50" height="50" relative="1" as="geometry">
            <mxPoint x="142" y="290" as="sourcePoint" />
            <mxPoint x="142" y="320" as="targetPoint" />
          </mxGeometry>
        </mxCell>
        <mxCell id="kov3exJGOiLsOatTBzYe-64" value="" style="shape=flexArrow;endArrow=classic;html=1;rounded=0;fillColor=#660000;strokeColor=#660000;endWidth=7;endSize=6.38;" parent="1" edge="1">
          <mxGeometry width="50" height="50" relative="1" as="geometry">
            <mxPoint x="219.5" y="440" as="sourcePoint" />
            <mxPoint x="219.5" y="470" as="targetPoint" />
          </mxGeometry>
        </mxCell>
        <mxCell id="kov3exJGOiLsOatTBzYe-67" value="" style="shape=flexArrow;endArrow=classic;html=1;rounded=0;fillColor=#000066;strokeColor=#000066;endWidth=7;endSize=6.38;entryX=0;entryY=0.5;entryDx=0;entryDy=0;" parent="1" edge="1">
          <mxGeometry width="50" height="50" relative="1" as="geometry">
            <mxPoint x="287" y="491.75" as="sourcePoint" />
            <mxPoint x="287" y="491.75" as="targetPoint" />
          </mxGeometry>
        </mxCell>
        <mxCell id="kov3exJGOiLsOatTBzYe-76" value="" style="shape=flexArrow;endArrow=classic;html=1;rounded=0;fillColor=#999999;strokeColor=#999999;endWidth=7;endSize=6.38;" parent="1" edge="1">
          <mxGeometry width="50" height="50" relative="1" as="geometry">
            <mxPoint x="170" y="180" as="sourcePoint" />
            <mxPoint x="470" y="180" as="targetPoint" />
          </mxGeometry>
        </mxCell>
        <mxCell id="kov3exJGOiLsOatTBzYe-77" value="$$64$$" style="text;html=1;align=center;verticalAlign=middle;resizable=0;points=[];autosize=1;strokeColor=none;fillColor=none;rotation=0;" parent="1" vertex="1">
          <mxGeometry x="112.5" y="50" width="60" height="30" as="geometry" />
        </mxCell>
        <mxCell id="kov3exJGOiLsOatTBzYe-89" value="$$128$$" style="text;html=1;align=center;verticalAlign=middle;resizable=0;points=[];autosize=1;strokeColor=none;fillColor=none;rotation=0;" parent="1" vertex="1">
          <mxGeometry x="145" y="300" width="70" height="30" as="geometry" />
        </mxCell>
        <mxCell id="kov3exJGOiLsOatTBzYe-91" value="&lt;div style=&quot;font-size: 14px;&quot;&gt;$$720\times 360$$&lt;/div&gt;" style="text;html=1;align=center;verticalAlign=middle;resizable=0;points=[];autosize=1;strokeColor=none;fillColor=none;rotation=-90;" parent="1" vertex="1">
          <mxGeometry x="60" y="410" width="140" height="30" as="geometry" />
        </mxCell>
        <mxCell id="kov3exJGOiLsOatTBzYe-96" value="&lt;div style=&quot;font-size: 14px;&quot;&gt;$$480\times 180$$&lt;/div&gt;" style="text;html=1;align=center;verticalAlign=middle;resizable=0;points=[];autosize=1;strokeColor=none;fillColor=none;rotation=-90;" parent="1" vertex="1">
          <mxGeometry x="122" y="478" width="140" height="30" as="geometry" />
        </mxCell>
        <mxCell id="kov3exJGOiLsOatTBzYe-102" value="" style="shape=flexArrow;endArrow=classic;html=1;rounded=0;fillColor=#999999;strokeColor=#999999;endWidth=7;endSize=6.38;" parent="1" edge="1">
          <mxGeometry width="50" height="50" relative="1" as="geometry">
            <mxPoint x="250" y="380" as="sourcePoint" />
            <mxPoint x="390" y="380" as="targetPoint" />
          </mxGeometry>
        </mxCell>
        <mxCell id="kov3exJGOiLsOatTBzYe-112" value="$$128$$" style="text;html=1;align=center;verticalAlign=middle;resizable=0;points=[];autosize=1;strokeColor=none;fillColor=none;rotation=0;" parent="1" vertex="1">
          <mxGeometry x="185" y="300" width="70" height="30" as="geometry" />
        </mxCell>
        <mxCell id="kov3exJGOiLsOatTBzYe-114" value="" style="rounded=0;whiteSpace=wrap;html=1;fillColor=#dae8fc;strokeColor=#6c8ebf;" parent="1" vertex="1">
          <mxGeometry x="60" y="80" width="3" height="200" as="geometry" />
        </mxCell>
        <mxCell id="kov3exJGOiLsOatTBzYe-116" value="&lt;span style=&quot;font-size: 14px;&quot;&gt;$$1280 \times 720$$&lt;/span&gt;" style="text;html=1;align=center;verticalAlign=middle;resizable=0;points=[];autosize=1;strokeColor=none;fillColor=none;rotation=-90;" parent="1" vertex="1">
          <mxGeometry x="15" y="230" width="150" height="30" as="geometry" />
        </mxCell>
        <mxCell id="kov3exJGOiLsOatTBzYe-117" value="" style="shape=flexArrow;endArrow=classic;html=1;rounded=0;fillColor=#000066;strokeColor=#000066;endWidth=7;endSize=6.38;" parent="1" edge="1">
          <mxGeometry width="50" height="50" relative="1" as="geometry">
            <mxPoint x="105" y="179.5" as="sourcePoint" />
            <mxPoint x="135" y="180" as="targetPoint" />
          </mxGeometry>
        </mxCell>
        <mxCell id="kov3exJGOiLsOatTBzYe-118" value="" style="rounded=0;whiteSpace=wrap;html=1;fillColor=#dae8fc;strokeColor=#6c8ebf;" parent="1" vertex="1">
          <mxGeometry x="100" y="80" width="5" height="200" as="geometry" />
        </mxCell>
        <mxCell id="kov3exJGOiLsOatTBzYe-146" value="" style="rounded=0;whiteSpace=wrap;html=1;fillColor=#FFFFFF;strokeColor=#6c8ebf;" parent="1" vertex="1">
          <mxGeometry x="490" y="80" width="5" height="200" as="geometry" />
        </mxCell>
        <mxCell id="kov3exJGOiLsOatTBzYe-147" value="&lt;span style=&quot;font-size: 14px;&quot;&gt;$$1280 \times 720$$&lt;/span&gt;" style="text;html=1;align=center;verticalAlign=middle;resizable=0;points=[];autosize=1;strokeColor=none;fillColor=none;rotation=-90;" parent="1" vertex="1">
          <mxGeometry x="55" y="230" width="150" height="30" as="geometry" />
        </mxCell>
        <mxCell id="kov3exJGOiLsOatTBzYe-148" value="" style="shape=flexArrow;endArrow=classic;html=1;rounded=0;fillColor=#000066;strokeColor=#000066;endWidth=7;endSize=6.38;entryX=0;entryY=0.5;entryDx=0;entryDy=0;" parent="1" edge="1">
          <mxGeometry width="50" height="50" relative="1" as="geometry">
            <mxPoint x="185" y="379.5" as="sourcePoint" />
            <mxPoint x="215" y="380" as="targetPoint" />
          </mxGeometry>
        </mxCell>
        <mxCell id="kov3exJGOiLsOatTBzYe-149" value="" style="rounded=0;whiteSpace=wrap;html=1;fillColor=#dae8fc;strokeColor=#6c8ebf;" parent="1" vertex="1">
          <mxGeometry x="175" y="330" width="10" height="100" as="geometry" />
        </mxCell>
        <mxCell id="kov3exJGOiLsOatTBzYe-150" value="&lt;div style=&quot;font-size: 14px;&quot;&gt;$$720\times 360$$&lt;/div&gt;" style="text;html=1;align=center;verticalAlign=middle;resizable=0;points=[];autosize=1;strokeColor=none;fillColor=none;rotation=-90;" parent="1" vertex="1">
          <mxGeometry x="95" y="410" width="140" height="30" as="geometry" />
        </mxCell>
        <mxCell id="kov3exJGOiLsOatTBzYe-153" value="&lt;div style=&quot;font-size: 14px;&quot;&gt;$$720\times 360$$&lt;/div&gt;" style="text;html=1;align=center;verticalAlign=middle;resizable=0;points=[];autosize=1;strokeColor=none;fillColor=none;rotation=-90;" parent="1" vertex="1">
          <mxGeometry x="135" y="410" width="140" height="30" as="geometry" />
        </mxCell>
        <mxCell id="kov3exJGOiLsOatTBzYe-176" value="" style="rounded=0;whiteSpace=wrap;html=1;fillColor=#dae8fc;strokeColor=#6c8ebf;" parent="1" vertex="1">
          <mxGeometry x="140" y="330" width="5" height="100" as="geometry" />
        </mxCell>
        <mxCell id="kov3exJGOiLsOatTBzYe-191" value="$$64$$" style="text;html=1;align=center;verticalAlign=middle;resizable=0;points=[];autosize=1;strokeColor=none;fillColor=none;rotation=0;" parent="1" vertex="1">
          <mxGeometry x="72.5" y="50" width="60" height="30" as="geometry" />
        </mxCell>
        <mxCell id="kov3exJGOiLsOatTBzYe-200" value="" style="rounded=0;whiteSpace=wrap;html=1;fillColor=#dae8fc;strokeColor=#6c8ebf;" parent="1" vertex="1">
          <mxGeometry x="207" y="485.5" width="30" height="12.5" as="geometry" />
        </mxCell>
        <mxCell id="kov3exJGOiLsOatTBzYe-215" value="" style="shape=flexArrow;endArrow=classic;html=1;rounded=0;fillColor=#000066;strokeColor=#000066;endWidth=7;endSize=6.38;entryX=0;entryY=0.5;entryDx=0;entryDy=0;" parent="1" edge="1">
          <mxGeometry width="50" height="50" relative="1" as="geometry">
            <mxPoint x="242" y="491.25" as="sourcePoint" />
            <mxPoint x="272" y="491.75" as="targetPoint" />
          </mxGeometry>
        </mxCell>
        <mxCell id="kov3exJGOiLsOatTBzYe-219" value="" style="shape=flexArrow;endArrow=classic;html=1;rounded=0;fillColor=#000066;strokeColor=#000066;endWidth=7;endSize=6.38;entryX=0;entryY=0.5;entryDx=0;entryDy=0;" parent="1" edge="1">
          <mxGeometry width="50" height="50" relative="1" as="geometry">
            <mxPoint x="377" y="489.88" as="sourcePoint" />
            <mxPoint x="377" y="489.88" as="targetPoint" />
          </mxGeometry>
        </mxCell>
        <mxCell id="kov3exJGOiLsOatTBzYe-220" value="" style="rounded=0;whiteSpace=wrap;html=1;fillColor=#dae8fc;strokeColor=#6c8ebf;" parent="1" vertex="1">
          <mxGeometry x="297" y="485.5" width="30" height="12.5" as="geometry" />
        </mxCell>
        <mxCell id="kov3exJGOiLsOatTBzYe-221" value="" style="shape=flexArrow;endArrow=classic;html=1;rounded=0;fillColor=#000066;strokeColor=#000066;endWidth=7;endSize=6.38;entryX=0;entryY=0.5;entryDx=0;entryDy=0;" parent="1" edge="1">
          <mxGeometry width="50" height="50" relative="1" as="geometry">
            <mxPoint x="340" y="492" as="sourcePoint" />
            <mxPoint x="370" y="492.5" as="targetPoint" />
          </mxGeometry>
        </mxCell>
        <mxCell id="kov3exJGOiLsOatTBzYe-226" value="" style="rounded=0;whiteSpace=wrap;html=1;fillColor=#dae8fc;strokeColor=#6c8ebf;" parent="1" vertex="1">
          <mxGeometry x="395" y="486.75" width="30" height="12.5" as="geometry" />
        </mxCell>
        <mxCell id="kov3exJGOiLsOatTBzYe-228" value="$$256$$" style="text;html=1;align=center;verticalAlign=middle;resizable=0;points=[];autosize=1;strokeColor=none;fillColor=none;rotation=0;" parent="1" vertex="1">
          <mxGeometry x="277" y="458" width="70" height="30" as="geometry" />
        </mxCell>
        <mxCell id="kov3exJGOiLsOatTBzYe-257" value="&lt;div style=&quot;font-size: 14px;&quot;&gt;$$480\times 180$$&lt;/div&gt;" style="text;html=1;align=center;verticalAlign=middle;resizable=0;points=[];autosize=1;strokeColor=none;fillColor=none;rotation=-90;" parent="1" vertex="1">
          <mxGeometry x="217" y="478" width="140" height="30" as="geometry" />
        </mxCell>
        <mxCell id="kov3exJGOiLsOatTBzYe-258" value="&lt;div style=&quot;font-size: 14px;&quot;&gt;$$480\times 180$$&lt;/div&gt;" style="text;html=1;align=center;verticalAlign=middle;resizable=0;points=[];autosize=1;strokeColor=none;fillColor=none;rotation=-90;" parent="1" vertex="1">
          <mxGeometry x="310" y="476.75" width="140" height="30" as="geometry" />
        </mxCell>
        <mxCell id="kov3exJGOiLsOatTBzYe-276" value="" style="rounded=0;whiteSpace=wrap;html=1;fillColor=#dae8fc;strokeColor=#6c8ebf;" parent="1" vertex="1">
          <mxGeometry x="215" y="330" width="10" height="100" as="geometry" />
        </mxCell>
        <mxCell id="kov3exJGOiLsOatTBzYe-293" value="" style="shape=flexArrow;endArrow=classic;html=1;rounded=0;fillColor=#009900;strokeColor=#009900;endWidth=7;endSize=6.38;" parent="1" edge="1">
          <mxGeometry width="50" height="50" relative="1" as="geometry">
            <mxPoint x="414.5" y="469" as="sourcePoint" />
            <mxPoint x="414.5" y="440" as="targetPoint" />
          </mxGeometry>
        </mxCell>
        <mxCell id="kov3exJGOiLsOatTBzYe-294" value="" style="rounded=0;whiteSpace=wrap;html=1;fillColor=#FFFFFF;strokeColor=#6c8ebf;" parent="1" vertex="1">
          <mxGeometry x="405" y="330" width="10" height="100" as="geometry" />
        </mxCell>
        <mxCell id="kov3exJGOiLsOatTBzYe-295" value="" style="rounded=0;whiteSpace=wrap;html=1;fillColor=#dae8fc;strokeColor=#6c8ebf;" parent="1" vertex="1">
          <mxGeometry x="415" y="330" width="10" height="100" as="geometry" />
        </mxCell>
        <mxCell id="kov3exJGOiLsOatTBzYe-296" value="$$256$$" style="text;html=1;align=center;verticalAlign=middle;resizable=0;points=[];autosize=1;strokeColor=none;fillColor=none;rotation=0;" parent="1" vertex="1">
          <mxGeometry x="380" y="300" width="70" height="30" as="geometry" />
        </mxCell>
        <mxCell id="kov3exJGOiLsOatTBzYe-297" value="&lt;div style=&quot;font-size: 14px;&quot;&gt;$$720\times 360$$&lt;/div&gt;" style="text;html=1;align=center;verticalAlign=middle;resizable=0;points=[];autosize=1;strokeColor=none;fillColor=none;rotation=-90;" parent="1" vertex="1">
          <mxGeometry x="325" y="410" width="140" height="30" as="geometry" />
        </mxCell>
        <mxCell id="kov3exJGOiLsOatTBzYe-298" value="" style="shape=flexArrow;endArrow=classic;html=1;rounded=0;fillColor=#000066;strokeColor=#000066;endWidth=7;endSize=6.38;entryX=0;entryY=0.5;entryDx=0;entryDy=0;" parent="1" edge="1">
          <mxGeometry width="50" height="50" relative="1" as="geometry">
            <mxPoint x="425" y="379.5" as="sourcePoint" />
            <mxPoint x="455.5" y="380" as="targetPoint" />
          </mxGeometry>
        </mxCell>
        <mxCell id="kov3exJGOiLsOatTBzYe-302" value="&lt;div style=&quot;font-size: 14px;&quot;&gt;$$720\times 360$$&lt;/div&gt;" style="text;html=1;align=center;verticalAlign=middle;resizable=0;points=[];autosize=1;strokeColor=none;fillColor=none;rotation=-90;" parent="1" vertex="1">
          <mxGeometry x="380" y="410" width="140" height="30" as="geometry" />
        </mxCell>
        <mxCell id="kov3exJGOiLsOatTBzYe-309" value="" style="rounded=0;whiteSpace=wrap;html=1;fillColor=#dae8fc;strokeColor=#6c8ebf;" parent="1" vertex="1">
          <mxGeometry x="460" y="330" width="5" height="100" as="geometry" />
        </mxCell>
        <mxCell id="kov3exJGOiLsOatTBzYe-311" value="$$128$$" style="text;html=1;align=center;verticalAlign=middle;resizable=0;points=[];autosize=1;strokeColor=none;fillColor=none;rotation=0;" parent="1" vertex="1">
          <mxGeometry x="427.5" y="300" width="70" height="30" as="geometry" />
        </mxCell>
        <mxCell id="kov3exJGOiLsOatTBzYe-312" value="" style="shape=flexArrow;endArrow=classic;html=1;rounded=0;fillColor=#000066;strokeColor=#000066;endWidth=7;endSize=6.38;entryX=0;entryY=0.5;entryDx=0;entryDy=0;" parent="1" edge="1">
          <mxGeometry width="50" height="50" relative="1" as="geometry">
            <mxPoint x="465" y="379.5" as="sourcePoint" />
            <mxPoint x="495.5" y="380" as="targetPoint" />
          </mxGeometry>
        </mxCell>
        <mxCell id="kov3exJGOiLsOatTBzYe-321" value="&lt;div style=&quot;font-size: 14px;&quot;&gt;$$720\times 360$$&lt;/div&gt;" style="text;html=1;align=center;verticalAlign=middle;resizable=0;points=[];autosize=1;strokeColor=none;fillColor=none;rotation=-90;" parent="1" vertex="1">
          <mxGeometry x="415" y="410" width="140" height="30" as="geometry" />
        </mxCell>
        <mxCell id="kov3exJGOiLsOatTBzYe-322" value="" style="rounded=0;whiteSpace=wrap;html=1;fillColor=#dae8fc;strokeColor=#6c8ebf;" parent="1" vertex="1">
          <mxGeometry x="495" y="330" width="5" height="100" as="geometry" />
        </mxCell>
        <mxCell id="kov3exJGOiLsOatTBzYe-326" value="" style="rounded=0;whiteSpace=wrap;html=1;fillColor=#dae8fc;strokeColor=#6c8ebf;" parent="1" vertex="1">
          <mxGeometry x="495" y="80" width="5" height="200" as="geometry" />
        </mxCell>
        <mxCell id="kov3exJGOiLsOatTBzYe-327" value="" style="shape=flexArrow;endArrow=classic;html=1;rounded=0;fillColor=#009900;strokeColor=#009900;endWidth=7;endSize=6.38;" parent="1" edge="1">
          <mxGeometry width="50" height="50" relative="1" as="geometry">
            <mxPoint x="497" y="319" as="sourcePoint" />
            <mxPoint x="497" y="290" as="targetPoint" />
          </mxGeometry>
        </mxCell>
        <mxCell id="kov3exJGOiLsOatTBzYe-329" value="$$128$$" style="text;html=1;align=center;verticalAlign=middle;resizable=0;points=[];autosize=1;strokeColor=none;fillColor=none;rotation=0;" parent="1" vertex="1">
          <mxGeometry x="460" y="50" width="70" height="30" as="geometry" />
        </mxCell>
        <mxCell id="kov3exJGOiLsOatTBzYe-330" value="" style="rounded=0;whiteSpace=wrap;html=1;fillColor=#dae8fc;strokeColor=#6c8ebf;" parent="1" vertex="1">
          <mxGeometry x="140" y="80" width="5" height="200" as="geometry" />
        </mxCell>
        <mxCell id="kov3exJGOiLsOatTBzYe-331" value="" style="shape=flexArrow;endArrow=classic;html=1;rounded=0;fillColor=#000066;strokeColor=#000066;endWidth=7;endSize=6.38;entryX=0;entryY=0.5;entryDx=0;entryDy=0;" parent="1" edge="1">
          <mxGeometry width="50" height="50" relative="1" as="geometry">
            <mxPoint x="500" y="179.5" as="sourcePoint" />
            <mxPoint x="530.5" y="180" as="targetPoint" />
          </mxGeometry>
        </mxCell>
        <mxCell id="kov3exJGOiLsOatTBzYe-334" value="" style="shape=flexArrow;endArrow=classic;html=1;rounded=0;fillColor=#000066;strokeColor=#000066;endWidth=7;endSize=6.38;entryX=0;entryY=0.5;entryDx=0;entryDy=0;" parent="1" edge="1">
          <mxGeometry width="50" height="50" relative="1" as="geometry">
            <mxPoint x="540" y="179.5" as="sourcePoint" />
            <mxPoint x="570.5" y="180" as="targetPoint" />
          </mxGeometry>
        </mxCell>
        <mxCell id="kov3exJGOiLsOatTBzYe-335" value="&lt;span style=&quot;font-size: 14px;&quot;&gt;$$1280 \times 720$$&lt;/span&gt;" style="text;html=1;align=center;verticalAlign=middle;resizable=0;points=[];autosize=1;strokeColor=none;fillColor=none;rotation=-90;" parent="1" vertex="1">
          <mxGeometry x="405" y="230" width="150" height="30" as="geometry" />
        </mxCell>
        <mxCell id="kov3exJGOiLsOatTBzYe-339" value="" style="rounded=0;whiteSpace=wrap;html=1;fillColor=#dae8fc;strokeColor=#6c8ebf;" parent="1" vertex="1">
          <mxGeometry x="535" y="80" width="5" height="200" as="geometry" />
        </mxCell>
        <mxCell id="kov3exJGOiLsOatTBzYe-340" value="&lt;span style=&quot;font-size: 14px;&quot;&gt;$$1280 \times 720$$&lt;/span&gt;" style="text;html=1;align=center;verticalAlign=middle;resizable=0;points=[];autosize=1;strokeColor=none;fillColor=none;rotation=-90;" parent="1" vertex="1">
          <mxGeometry x="450" y="230" width="150" height="30" as="geometry" />
        </mxCell>
        <mxCell id="kov3exJGOiLsOatTBzYe-344" value="&lt;span style=&quot;font-size: 14px;&quot;&gt;$$1280 \times 720$$&lt;/span&gt;" style="text;html=1;align=center;verticalAlign=middle;resizable=0;points=[];autosize=1;strokeColor=none;fillColor=none;rotation=-90;" parent="1" vertex="1">
          <mxGeometry x="490" y="230" width="150" height="30" as="geometry" />
        </mxCell>
        <mxCell id="kov3exJGOiLsOatTBzYe-345" value="" style="rounded=0;whiteSpace=wrap;html=1;fillColor=#dae8fc;strokeColor=#6c8ebf;" parent="1" vertex="1">
          <mxGeometry x="575" y="80" width="5" height="200" as="geometry" />
        </mxCell>
        <mxCell id="kov3exJGOiLsOatTBzYe-349" value="" style="shape=flexArrow;endArrow=classic;html=1;rounded=0;fillColor=#009999;strokeColor=#009999;endWidth=7;endSize=6.38;entryX=0;entryY=0.5;entryDx=0;entryDy=0;" parent="1" edge="1">
          <mxGeometry width="50" height="50" relative="1" as="geometry">
            <mxPoint x="580" y="179.5" as="sourcePoint" />
            <mxPoint x="610.5" y="180" as="targetPoint" />
          </mxGeometry>
        </mxCell>
        <mxCell id="kov3exJGOiLsOatTBzYe-350" value="" style="rounded=0;whiteSpace=wrap;html=1;fillColor=#dae8fc;strokeColor=#6c8ebf;" parent="1" vertex="1">
          <mxGeometry x="612.5" y="80" width="2" height="200" as="geometry" />
        </mxCell>
        <mxCell id="kov3exJGOiLsOatTBzYe-351" value="$$64$$" style="text;html=1;align=center;verticalAlign=middle;resizable=0;points=[];autosize=1;strokeColor=none;fillColor=none;rotation=0;" parent="1" vertex="1">
          <mxGeometry x="507.5" y="50" width="60" height="30" as="geometry" />
        </mxCell>
        <mxCell id="kov3exJGOiLsOatTBzYe-352" value="$$64$$" style="text;html=1;align=center;verticalAlign=middle;resizable=0;points=[];autosize=1;strokeColor=none;fillColor=none;rotation=0;" parent="1" vertex="1">
          <mxGeometry x="547.5" y="50" width="60" height="30" as="geometry" />
        </mxCell>
        <mxCell id="kov3exJGOiLsOatTBzYe-353" value="$$5$$" style="text;html=1;align=center;verticalAlign=middle;resizable=0;points=[];autosize=1;strokeColor=none;fillColor=none;rotation=0;" parent="1" vertex="1">
          <mxGeometry x="583.5" y="50" width="60" height="30" as="geometry" />
        </mxCell>
        <mxCell id="kov3exJGOiLsOatTBzYe-354" value="" style="shape=flexArrow;endArrow=classic;html=1;rounded=0;fillColor=#000066;strokeColor=#000066;endWidth=7;endSize=6.38;entryX=0;entryY=0.5;entryDx=0;entryDy=0;" parent="1" edge="1">
          <mxGeometry width="50" height="50" relative="1" as="geometry">
            <mxPoint x="542.5" y="364.5" as="sourcePoint" />
            <mxPoint x="573" y="365" as="targetPoint" />
          </mxGeometry>
        </mxCell>
        <mxCell id="kov3exJGOiLsOatTBzYe-355" value="" style="shape=flexArrow;endArrow=classic;html=1;rounded=0;fillColor=#999999;strokeColor=#999999;endWidth=7;endSize=6.38;entryX=0;entryY=0.5;entryDx=0;entryDy=0;" parent="1" edge="1">
          <mxGeometry width="50" height="50" relative="1" as="geometry">
            <mxPoint x="542.5" y="394.5" as="sourcePoint" />
            <mxPoint x="573" y="395" as="targetPoint" />
          </mxGeometry>
        </mxCell>
        <mxCell id="kov3exJGOiLsOatTBzYe-357" value="" style="shape=flexArrow;endArrow=classic;html=1;rounded=0;fillColor=#660000;strokeColor=#660000;endWidth=7;endSize=6.38;" parent="1" edge="1">
          <mxGeometry width="50" height="50" relative="1" as="geometry">
            <mxPoint x="560" y="420" as="sourcePoint" />
            <mxPoint x="560" y="450" as="targetPoint" />
          </mxGeometry>
        </mxCell>
        <mxCell id="kov3exJGOiLsOatTBzYe-358" value="" style="shape=flexArrow;endArrow=classic;html=1;rounded=0;fillColor=#009900;strokeColor=#009900;endWidth=7;endSize=6.38;" parent="1" edge="1">
          <mxGeometry width="50" height="50" relative="1" as="geometry">
            <mxPoint x="560" y="487.5" as="sourcePoint" />
            <mxPoint x="560" y="458.5" as="targetPoint" />
          </mxGeometry>
        </mxCell>
        <mxCell id="kov3exJGOiLsOatTBzYe-359" value="" style="shape=flexArrow;endArrow=classic;html=1;rounded=0;fillColor=#009999;strokeColor=#009999;endWidth=7;endSize=6.38;entryX=0;entryY=0.5;entryDx=0;entryDy=0;" parent="1" edge="1">
          <mxGeometry width="50" height="50" relative="1" as="geometry">
            <mxPoint x="544.5" y="504.5" as="sourcePoint" />
            <mxPoint x="575" y="505" as="targetPoint" />
          </mxGeometry>
        </mxCell>
        <mxCell id="kov3exJGOiLsOatTBzYe-362" value="&lt;span style=&quot;font-size: 14px;&quot;&gt;$$1280 \times 720$$&lt;/span&gt;" style="text;html=1;align=center;verticalAlign=middle;resizable=0;points=[];autosize=1;strokeColor=none;fillColor=none;rotation=-90;" parent="1" vertex="1">
          <mxGeometry x="530" y="230" width="150" height="30" as="geometry" />
        </mxCell>
        <mxCell id="kov3exJGOiLsOatTBzYe-363" value="&lt;font color=&quot;#0000cc&quot; style=&quot;font-size: 14px;&quot;&gt;conv 3x3, norm, ReLU&lt;/font&gt;" style="text;html=1;align=center;verticalAlign=middle;resizable=0;points=[];autosize=1;strokeColor=none;fillColor=none;" parent="1" vertex="1">
          <mxGeometry x="567.5" y="350" width="160" height="30" as="geometry" />
        </mxCell>
        <mxCell id="kov3exJGOiLsOatTBzYe-364" value="&lt;font style=&quot;font-size: 14px;&quot; color=&quot;#666666&quot;&gt;copy and concat&lt;br&gt;&lt;/font&gt;" style="text;html=1;align=center;verticalAlign=middle;resizable=0;points=[];autosize=1;strokeColor=none;fillColor=none;" parent="1" vertex="1">
          <mxGeometry x="570" y="380" width="130" height="30" as="geometry" />
        </mxCell>
        <mxCell id="kov3exJGOiLsOatTBzYe-365" value="&lt;font color=&quot;#990000&quot; style=&quot;font-size: 14px;&quot;&gt;max pool 2x2&lt;/font&gt;&lt;font color=&quot;#990000&quot; style=&quot;font-size: 14px;&quot;&gt;&lt;br&gt;&lt;/font&gt;" style="text;html=1;align=center;verticalAlign=middle;resizable=0;points=[];autosize=1;strokeColor=none;fillColor=none;" parent="1" vertex="1">
          <mxGeometry x="572.5" y="420" width="110" height="30" as="geometry" />
        </mxCell>
        <mxCell id="kov3exJGOiLsOatTBzYe-366" value="&lt;font color=&quot;#009900&quot; style=&quot;font-size: 14px;&quot;&gt;transposed conv&lt;/font&gt;" style="text;html=1;align=center;verticalAlign=middle;resizable=0;points=[];autosize=1;strokeColor=none;fillColor=none;" parent="1" vertex="1">
          <mxGeometry x="572.5" y="460" width="130" height="30" as="geometry" />
        </mxCell>
        <mxCell id="kov3exJGOiLsOatTBzYe-367" value="&lt;font color=&quot;#009999&quot; style=&quot;font-size: 14px;&quot;&gt;conv 1x1&lt;br&gt;&lt;/font&gt;" style="text;html=1;align=center;verticalAlign=middle;resizable=0;points=[];autosize=1;strokeColor=none;fillColor=none;" parent="1" vertex="1">
          <mxGeometry x="575" y="490" width="80" height="30" as="geometry" />
        </mxCell>
        <mxCell id="TCGzdKxxVhp0zkjqrLoE-18" value="" style="group" vertex="1" connectable="0" parent="1">
          <mxGeometry x="530" y="520" width="60" height="33" as="geometry" />
        </mxCell>
        <mxCell id="TCGzdKxxVhp0zkjqrLoE-13" value="" style="edgeStyle=segmentEdgeStyle;endArrow=classic;html=1;curved=0;rounded=0;fillColor=#e1d5e7;strokeColor=#9673A6;entryX=0.923;entryY=1.061;entryDx=0;entryDy=0;entryPerimeter=0;shape=flexArrow;width=5.6;endSize=3.596;endWidth=7.76;" edge="1" parent="TCGzdKxxVhp0zkjqrLoE-18" target="TCGzdKxxVhp0zkjqrLoE-14">
          <mxGeometry width="50" height="50" relative="1" as="geometry">
            <mxPoint x="18.5" as="sourcePoint" />
            <mxPoint x="75" y="32" as="targetPoint" />
            <Array as="points">
              <mxPoint x="18.5" y="33" />
            </Array>
          </mxGeometry>
        </mxCell>
        <mxCell id="TCGzdKxxVhp0zkjqrLoE-14" value="+" style="text;html=1;align=center;verticalAlign=middle;whiteSpace=wrap;rounded=0;" vertex="1" parent="TCGzdKxxVhp0zkjqrLoE-18">
          <mxGeometry y="1" width="60" height="30" as="geometry" />
        </mxCell>
        <mxCell id="TCGzdKxxVhp0zkjqrLoE-19" value="&lt;font style=&quot;font-size: 14px;&quot;&gt;&lt;font style=&quot;color: rgb(150, 115, 166);&quot;&gt;ResNet plus&lt;/font&gt;&lt;br&gt;&lt;/font&gt;" style="text;html=1;align=center;verticalAlign=middle;resizable=0;points=[];autosize=1;strokeColor=none;fillColor=none;" vertex="1" parent="1">
          <mxGeometry x="572.5" y="523" width="100" height="30" as="geometry" />
        </mxCell>
        <mxCell id="TCGzdKxxVhp0zkjqrLoE-21" value="" style="group" vertex="1" connectable="0" parent="1">
          <mxGeometry x="72.5" y="-10" width="60" height="72" as="geometry" />
        </mxCell>
        <mxCell id="TCGzdKxxVhp0zkjqrLoE-12" value="+" style="text;html=1;align=center;verticalAlign=middle;whiteSpace=wrap;rounded=0;" vertex="1" parent="TCGzdKxxVhp0zkjqrLoE-21">
          <mxGeometry y="40" width="60" height="30" as="geometry" />
        </mxCell>
        <mxCell id="TCGzdKxxVhp0zkjqrLoE-27" value="" style="group" vertex="1" connectable="0" parent="1">
          <mxGeometry x="230" y="540" width="60" height="72" as="geometry" />
        </mxCell>
        <mxCell id="TCGzdKxxVhp0zkjqrLoE-28" value="" style="edgeStyle=segmentEdgeStyle;endArrow=classic;html=1;curved=0;rounded=0;fillColor=#e1d5e7;strokeColor=#9673a6;shape=flexArrow;width=5.6;endSize=3.596;endWidth=7.76;" edge="1" parent="TCGzdKxxVhp0zkjqrLoE-27">
          <mxGeometry width="50" height="50" relative="1" as="geometry">
            <mxPoint x="-10" y="-30" as="sourcePoint" />
            <mxPoint x="180" y="-30" as="targetPoint" />
            <Array as="points">
              <mxPoint x="-10" />
              <mxPoint x="180" />
            </Array>
          </mxGeometry>
        </mxCell>
        <mxCell id="TCGzdKxxVhp0zkjqrLoE-29" value="+" style="text;html=1;align=center;verticalAlign=middle;whiteSpace=wrap;rounded=0;" vertex="1" parent="1">
          <mxGeometry x="285" y="510" width="60" height="30" as="geometry" />
        </mxCell>
        <mxCell id="TCGzdKxxVhp0zkjqrLoE-7" value="" style="edgeStyle=segmentEdgeStyle;endArrow=classic;html=1;curved=0;rounded=0;fillColor=#e1d5e7;strokeColor=#9673a6;shape=flexArrow;width=5.6;endSize=3.5766666666666667;endWidth=6.8;exitX=0.519;exitY=0.094;exitDx=0;exitDy=0;exitPerimeter=0;entryX=0.493;entryY=0.039;entryDx=0;entryDy=0;entryPerimeter=0;" edge="1" parent="1" source="kov3exJGOiLsOatTBzYe-5" target="kov3exJGOiLsOatTBzYe-77">
          <mxGeometry width="50" height="50" relative="1" as="geometry">
            <mxPoint x="62.19999999999994" y="-14.600000000000023" as="sourcePoint" />
            <mxPoint x="142.74" y="-19.999999999999886" as="targetPoint" />
            <Array as="points">
              <mxPoint x="63" y="30" />
              <mxPoint x="142" y="30" />
            </Array>
          </mxGeometry>
        </mxCell>
        <mxCell id="TCGzdKxxVhp0zkjqrLoE-38" value="（省略残差操作）" style="text;html=1;align=center;verticalAlign=middle;resizable=0;points=[];autosize=1;strokeColor=none;fillColor=none;" vertex="1" parent="1">
          <mxGeometry x="20" y="365" width="120" height="30" as="geometry" />
        </mxCell>
      </root>
    </mxGraphModel>
  </diagram>
</mxfile>
